<svg width="35" height="35" viewBox="0 0 35 35" fill="none" xmlns="http://www.w3.org/2000/svg">
<path fill-rule="evenodd" clip-rule="evenodd" d="M0 17.5C0 27.165 7.83502 35 17.5 35C27.165 35 35 27.165 35 17.5C35 7.83502 27.165 0 17.5 0C7.83502 0 0 7.83502 0 17.5ZM33.4091 17.5C33.4091 26.2864 26.2864 33.4091 17.5 33.4091C8.71369 33.4091 1.59094 26.2864 1.59094 17.5C1.59094 8.71366 8.71369 1.59092 17.5 1.59092C26.2864 1.59092 33.4091 8.71366 33.4091 17.5Z" fill="black"/>
<path d="M6.36353 23H7.85768V11.022H6.37184L3.18434 13.313V14.8901L6.23072 12.6821H6.36353V23ZM10.9506 14.4004H12.3949C12.3949 12.981 13.3495 12.043 14.7856 12.043C16.1967 12.043 17.0517 12.9893 17.0517 14.2593C17.0517 15.3135 16.6034 15.936 15.0761 17.5879L11.0253 21.9707V23H18.7782V21.6553H13.1005V21.5225L15.8232 18.7085C17.9814 16.4756 18.579 15.4795 18.579 14.1016C18.579 12.1592 16.977 10.7397 14.8852 10.7397C12.5942 10.7397 10.9506 12.2671 10.9506 14.4004ZM26.1129 23H27.5738V20.5181H29.2755V19.1816H27.5738V11.022H25.4073C23.7305 13.5205 21.8961 16.4424 20.2774 19.1567V20.5181H26.1129V23ZM21.8048 19.0903C23.108 16.8906 24.6768 14.417 26.0216 12.4082H26.1212V19.1899H21.8048V19.0903Z" fill="black"/>
</svg>
