<svg width="35" height="35" viewBox="0 0 35 35" fill="none" xmlns="http://www.w3.org/2000/svg">
<path fill-rule="evenodd" clip-rule="evenodd" d="M0 17.5C0 27.165 7.83502 35 17.5 35C27.165 35 35 27.165 35 17.5C35 7.83502 27.165 0 17.5 0C7.83502 0 0 7.83502 0 17.5ZM33.4091 17.5C33.4091 26.2864 26.2864 33.4091 17.5 33.4091C8.71369 33.4091 1.59094 26.2864 1.59094 17.5C1.59094 8.71366 8.71369 1.59092 17.5 1.59092C26.2864 1.59092 33.4091 8.71366 33.4091 17.5Z" fill="black"/>
<path d="M7.61695 23H9.11109V11.022H7.62525L4.43775 13.313V14.8901L7.48414 12.6821H7.61695V23ZM16.2631 23.2822C18.7118 23.2822 20.3803 21.5889 20.3803 19.1235C20.3803 16.7495 18.7201 15.1724 16.7113 15.1724C15.516 15.1724 14.6279 15.5376 14.0468 16.2598H13.914L14.2875 12.3584H19.766V11.022H13.1171L12.4281 17.8701H13.831C14.3041 16.9819 15.2006 16.459 16.3378 16.459C17.8486 16.459 18.8862 17.5464 18.8862 19.165C18.8862 20.8418 17.8486 21.9707 16.2797 21.9707C14.8686 21.9707 13.8393 21.1157 13.7065 19.8374H12.2372C12.37 21.8877 13.997 23.2822 16.2631 23.2822ZM25.2579 23H26.752V11.022H25.2662L22.0787 13.313V14.8901L25.1251 12.6821H25.2579V23Z" fill="black"/>
</svg>
