<svg width="35" height="35" viewBox="0 0 35 35" fill="none" xmlns="http://www.w3.org/2000/svg">
<path fill-rule="evenodd" clip-rule="evenodd" d="M0 17.5C0 27.165 7.83502 35 17.5 35C27.165 35 35 27.165 35 17.5C35 7.83502 27.165 0 17.5 0C7.83502 0 0 7.83502 0 17.5ZM33.4091 17.5C33.4091 26.2864 26.2864 33.4091 17.5 33.4091C8.71369 33.4091 1.59094 26.2864 1.59094 17.5C1.59094 8.71366 8.71369 1.59092 17.5 1.59092C26.2864 1.59092 33.4091 8.71366 33.4091 17.5Z" fill="black"/>
<path d="M7.23707 23H8.73121V11.022H7.24537L4.05787 13.313V14.8901L7.10426 12.6821H7.23707V23ZM15.8832 23.2822C18.332 23.2822 20.0004 21.5889 20.0004 19.1235C20.0004 16.7495 18.3403 15.1724 16.3315 15.1724C15.1362 15.1724 14.248 15.5376 13.6669 16.2598H13.5341L13.9076 12.3584H19.3862V11.022H12.7372L12.0483 17.8701H13.4511C13.9242 16.9819 14.8207 16.459 15.9579 16.459C17.4687 16.459 18.5063 17.5464 18.5063 19.165C18.5063 20.8418 17.4687 21.9707 15.8998 21.9707C14.4887 21.9707 13.4594 21.1157 13.3266 19.8374H11.8573C11.9902 21.8877 13.6171 23.2822 15.8832 23.2822ZM22.5123 23H24.0811L29.4102 12.4082V11.022H21.483V12.3584H27.8912V12.4746L22.5123 23Z" fill="black"/>
</svg>
