<svg width="35" height="35" viewBox="0 0 35 35" fill="none" xmlns="http://www.w3.org/2000/svg">
<path fill-rule="evenodd" clip-rule="evenodd" d="M0 17.5C0 27.165 7.83502 35 17.5 35C27.165 35 35 27.165 35 17.5C35 7.83502 27.165 0 17.5 0C7.83502 0 0 7.83502 0 17.5ZM33.4091 17.5C33.4091 26.2864 26.2864 33.4091 17.5 33.4091C8.71369 33.4091 1.59094 26.2864 1.59094 17.5C1.59094 8.71366 8.71369 1.59092 17.5 1.59092C26.2864 1.59092 33.4091 8.71366 33.4091 17.5Z" fill="black"/>
<path d="M7.67953 14.4004H9.12387C9.12387 12.981 10.0785 12.043 11.5145 12.043C12.9256 12.043 13.7806 12.9893 13.7806 14.2593C13.7806 15.3135 13.3324 15.936 11.805 17.5879L7.75424 21.9707V23H15.5072V21.6553H9.82943V21.5225L12.5521 18.7085C14.7103 16.4756 15.3079 15.4795 15.3079 14.1016C15.3079 12.1592 13.7059 10.7397 11.6141 10.7397C9.32309 10.7397 7.67953 12.2671 7.67953 14.4004ZM21.6465 23.2822C24.3359 23.2822 25.8799 21.0078 25.8799 17.0317C25.8799 13.064 24.311 10.7397 21.6465 10.7397C18.9653 10.7397 17.3965 13.0557 17.3965 17.0068C17.3965 20.9912 18.9487 23.2822 21.6465 23.2822ZM21.6465 21.979C19.8784 21.979 18.8989 20.2109 18.8989 17.0068C18.8989 13.8442 19.895 12.0513 21.6465 12.0513C23.3979 12.0513 24.3774 13.8276 24.3774 17.0068C24.3774 20.2192 23.4146 21.979 21.6465 21.979Z" fill="black"/>
</svg>
