<svg width="35" height="35" viewBox="0 0 35 35" fill="none" xmlns="http://www.w3.org/2000/svg">
<path fill-rule="evenodd" clip-rule="evenodd" d="M0 17.5C0 27.165 7.83502 35 17.5 35C27.165 35 35 27.165 35 17.5C35 7.83502 27.165 0 17.5 0C7.83502 0 0 7.83502 0 17.5ZM33.4091 17.5C33.4091 26.2864 26.2864 33.4091 17.5 33.4091C8.71369 33.4091 1.59094 26.2864 1.59094 17.5C1.59094 8.71366 8.71369 1.59092 17.5 1.59092C26.2864 1.59092 33.4091 8.71366 33.4091 17.5Z" fill="black"/>
<path d="M18.0414 23H19.5024V20.5181H21.204V19.1816H19.5024V11.022H17.3359C15.6591 13.5205 13.8246 16.4424 12.206 19.1567V20.5181H18.0414V23ZM13.7333 19.0903C15.0365 16.8906 16.6054 14.417 17.9501 12.4082H18.0497V19.1899H13.7333V19.0903Z" fill="black"/>
</svg>
