<svg width="35" height="35" viewBox="0 0 35 35" fill="none" xmlns="http://www.w3.org/2000/svg">
<path fill-rule="evenodd" clip-rule="evenodd" d="M0 17.5C0 27.165 7.83502 35 17.5 35C27.165 35 35 27.165 35 17.5C35 7.83502 27.165 0 17.5 0C7.83502 0 0 7.83502 0 17.5ZM33.4091 17.5C33.4091 26.2864 26.2864 33.4091 17.5 33.4091C8.71369 33.4091 1.59094 26.2864 1.59094 17.5C1.59094 8.71366 8.71369 1.59092 17.5 1.59092C26.2864 1.59092 33.4091 8.71366 33.4091 17.5Z" fill="black"/>
<path d="M11.7054 23.2739C14.1624 23.2739 15.9056 21.5557 15.9056 19.1484C15.9056 16.8242 14.2537 15.1392 11.971 15.1392C10.5433 15.1392 9.37289 15.8198 8.78354 16.9819H8.65072C8.70053 13.728 9.86264 12.0679 11.8548 12.0679C13.0667 12.0679 13.9466 12.6904 14.1956 13.8027H15.7313C15.4242 11.9434 13.9881 10.7397 11.805 10.7397C8.97445 10.7397 7.19809 13.0972 7.19809 17.2144C7.19809 21.2485 9.09896 23.2739 11.7054 23.2739ZM11.6888 21.9624C10.1532 21.9624 8.98275 20.7505 8.98275 19.1484C8.98275 17.563 10.12 16.4341 11.7054 16.4341C13.2909 16.4341 14.3949 17.563 14.3949 19.1982C14.3949 20.7671 13.2245 21.9624 11.6888 21.9624ZM21.9287 23.2822C24.6182 23.2822 26.1621 21.0078 26.1621 17.0317C26.1621 13.064 24.5933 10.7397 21.9287 10.7397C19.2476 10.7397 17.6787 13.0557 17.6787 17.0068C17.6787 20.9912 19.231 23.2822 21.9287 23.2822ZM21.9287 21.979C20.1606 21.979 19.1812 20.2109 19.1812 17.0068C19.1812 13.8442 20.1772 12.0513 21.9287 12.0513C23.6802 12.0513 24.6597 13.8276 24.6597 17.0068C24.6597 20.2192 23.6968 21.979 21.9287 21.979Z" fill="black"/>
</svg>
