<svg width="35" height="35" viewBox="0 0 35 35" fill="none" xmlns="http://www.w3.org/2000/svg">
<path fill-rule="evenodd" clip-rule="evenodd" d="M0 17.5C0 27.165 7.83502 35 17.5 35C27.165 35 35 27.165 35 17.5C35 7.83502 27.165 0 17.5 0C7.83502 0 0 7.83502 0 17.5ZM33.4091 17.5C33.4091 26.2864 26.2864 33.4091 17.5 33.4091C8.71369 33.4091 1.59094 26.2864 1.59094 17.5C1.59094 8.71366 8.71369 1.59092 17.5 1.59092C26.2864 1.59092 33.4091 8.71366 33.4091 17.5Z" fill="black"/>
<path d="M12.6019 23.2739C15.0589 23.2739 16.8021 21.5557 16.8021 19.1484C16.8021 16.8242 15.1502 15.1392 12.8675 15.1392C11.4398 15.1392 10.2694 15.8198 9.68002 16.9819H9.54721C9.59701 13.728 10.7591 12.0679 12.7513 12.0679C13.9632 12.0679 14.8431 12.6904 15.0921 13.8027H16.6278C16.3206 11.9434 14.8846 10.7397 12.7015 10.7397C9.87094 10.7397 8.09457 13.0972 8.09457 17.2144C8.09457 21.2485 9.99545 23.2739 12.6019 23.2739ZM12.5853 21.9624C11.0496 21.9624 9.87924 20.7505 9.87924 19.1484C9.87924 17.563 11.0164 16.4341 12.6019 16.4341C14.1873 16.4341 15.2913 17.563 15.2913 19.1982C15.2913 20.7671 14.1209 21.9624 12.5853 21.9624ZM21.9702 19.6465L24.0869 23.0249H25.7803L22.7007 18.4927L25.7388 14.0767H24.1201L22.02 17.4053H21.8872L19.7622 14.0767H18.0605L21.1567 18.5508L18.0938 23.0249H19.7124L21.8374 19.6465H21.9702Z" fill="black"/>
</svg>
