<svg width="35" height="35" viewBox="0 0 35 35" fill="none" xmlns="http://www.w3.org/2000/svg">
<path fill-rule="evenodd" clip-rule="evenodd" d="M0 17.5C0 27.165 7.83502 35 17.5 35C27.165 35 35 27.165 35 17.5C35 7.83502 27.165 0 17.5 0C7.83502 0 0 7.83502 0 17.5ZM33.4091 17.5C33.4091 26.2864 26.2864 33.4091 17.5 33.4091C8.71369 33.4091 1.59094 26.2864 1.59094 17.5C1.59094 8.71366 8.71369 1.59092 17.5 1.59092C26.2864 1.59092 33.4091 8.71366 33.4091 17.5Z" fill="black"/>
<path d="M3.81715 20.2026C3.81715 22.0371 5.22828 23.2822 7.23707 23.2822C9.40357 23.2822 10.7234 21.9458 10.7234 19.6631V11.022H9.22926V19.6548C9.22926 21.124 8.50709 21.9043 7.22877 21.9043C6.09986 21.9043 5.33619 21.207 5.30299 20.2026H3.81715ZM16.0409 23H17.5351V11.022H16.0492L12.8617 13.313V14.8901L15.9081 12.6821H16.0409V23ZM26.1729 23H27.6339V20.5181H29.3355V19.1816H27.6339V11.022H25.4674C23.7906 13.5205 21.9561 16.4424 20.3375 19.1567V20.5181H26.1729V23ZM21.8648 19.0903C23.168 16.8906 24.7369 14.417 26.0816 12.4082H26.1812V19.1899H21.8648V19.0903Z" fill="black"/>
</svg>
